<svg width="64" height="64" viewBox="0 0 64 64" fill="none" xmlns="http://www.w3.org/2000/svg">
<path d="M26.6169 63.1043C26.5786 62.9895 26.5403 60.8857 26.5403 58.4122V53.9113L27.6633 53.7583C31.9641 53.1591 35.5119 51.2083 38.2302 47.9314C40.1317 45.6491 41.51 42.3978 41.8163 39.529L41.9184 38.6365L46.6148 38.5982C50.7241 38.5727 51.2984 38.5982 51.2984 38.764C51.2984 38.866 51.2091 38.9553 51.107 38.9553C50.9666 38.9553 50.9156 39.1083 50.9156 39.5673C50.9156 39.8988 50.8262 40.753 50.7241 41.4671C49.2948 51.527 41.778 59.802 31.9003 62.199C30.6496 62.505 29.5904 62.6708 27.791 62.862C27.2677 62.9258 27.0508 63.0023 27.0508 63.1298C27.0508 63.372 26.719 63.3593 26.6169 63.1043Z" fill="#E64C3C"/>
<path d="M25.0088 63.0915C24.9705 63.0022 24.3835 62.8875 23.605 62.7982C15.9989 61.9822 9.41375 58.0296 5.16403 51.6928C3.56879 49.3212 2.11393 45.8404 1.53964 42.9716C1.33545 41.9133 1.0164 39.6055 1.0164 39.0827C1.0164 39.019 0.927069 38.9552 0.824974 38.9552C0.722878 38.9552 0.633545 38.866 0.633545 38.764C0.633545 38.5982 1.24612 38.5727 5.3427 38.5727H10.0518L10.1412 39.2485C10.7027 43.8386 12.8467 47.7019 16.2669 50.3667C18.6279 52.19 20.8995 53.1845 23.8602 53.6946C24.5239 53.8093 25.0854 53.9113 25.1109 53.9241C25.1237 53.9496 25.1237 56.0534 25.1109 58.6034C25.0854 61.1535 25.0471 63.1808 25.0088 63.0915Z" fill="#E64C3C"/>
<path d="M24.1413 45.8275C23.4138 45.7 22.0483 45.1262 21.423 44.68C21.0401 44.4122 21.0274 44.3612 21.0912 43.7875C21.1933 42.9587 21.0018 42.7547 20.2106 42.8694C19.4959 42.9587 19.3045 42.8057 18.7685 41.6454C17.6965 39.3121 17.7348 36.303 18.8578 34.11L19.3428 33.1537L20.083 33.141C20.4914 33.1282 20.887 33.0517 20.9635 32.9752C21.0529 32.886 21.1167 32.5035 21.1167 32.1082V31.3942L21.9973 30.9097C23.2479 30.2339 24.1923 30.0299 26.0683 30.0299C27.6253 30.0299 28.2889 30.1447 29.514 30.6292C29.9224 30.7949 29.9862 30.8842 29.9862 31.2284C29.9862 31.5727 29.6672 31.9424 27.4211 34.1737C24.69 36.8896 24.1668 37.5653 24.3072 38.1646C24.422 38.7256 25.0856 39.4396 25.6472 39.6054C26.0938 39.7456 26.1959 39.7201 26.6936 39.4269C26.9999 39.2484 28.391 37.9478 29.7948 36.5453C32.0281 34.3012 32.3982 33.9825 32.7428 33.9825C33.1129 33.9825 33.1767 34.0462 33.4064 34.6583C33.8659 35.793 33.9424 36.2903 33.9424 37.9351C33.9424 39.8221 33.751 40.6636 33.0619 41.9514L32.5769 42.8439H31.8622C31.4538 42.8439 31.0838 42.9077 30.9817 43.0097C30.8923 43.0989 30.8158 43.4814 30.8158 43.8895V44.6162L29.8586 45.1007C28.3272 45.8785 26.1194 46.159 24.1413 45.8275Z" fill="#E64C3C"/>
<path d="M41.8038 36.3415C41.5996 34.123 40.6552 31.5602 39.2387 29.3799C38.2943 27.9263 38.1794 28.1431 41.7017 24.6368C43.8202 22.5202 44.8156 21.615 45.007 21.615C45.1857 21.615 45.275 21.6787 45.2368 21.7807C45.1985 21.8572 45.5175 22.3927 45.9387 22.9537C48.7335 26.6641 50.5457 31.3562 50.8648 35.704C50.9158 36.3415 51.0179 36.8898 51.0945 36.9408C51.171 36.9918 51.1966 37.0555 51.171 37.0938C51.1328 37.1193 49.027 37.1703 46.5002 37.1958L41.8804 37.234L41.8038 36.3415Z" fill="#E64C3C"/>
<path d="M0.761475 37.0555C0.761475 36.9917 0.812522 36.9152 0.889094 36.8897C0.952904 36.877 1.08052 36.2522 1.14433 35.5127C2.08872 26.2943 7.97197 18.4274 16.6501 14.819C18.692 13.9648 21.6528 13.2635 23.784 13.1105C24.4221 13.0723 24.9836 12.9702 25.0347 12.8937C25.0857 12.8172 25.1368 14.564 25.1368 16.7698C25.1368 18.9756 25.1751 21.0794 25.2133 21.4364L25.2899 22.0867L24.4093 22.1632C22.227 22.3672 19.5726 23.3362 17.5307 24.6622C13.3575 27.378 10.8562 31.4071 10.1415 36.571L10.0649 37.1703H5.40682C2.67576 37.1703 0.761475 37.1193 0.761475 37.0555Z" fill="#E64C3C"/>
<path d="M34.5803 24.726C33.5849 24.0374 32.2576 23.3872 30.9814 22.9409C29.8967 22.5712 27.8548 22.1249 27.2294 22.1249C26.9359 22.1249 26.7572 22.0484 26.6679 21.8826C26.5913 21.7169 26.5403 19.9956 26.5403 17.165C26.5403 12.7789 26.5403 12.6897 26.7955 12.6897C26.9359 12.6897 27.0508 12.7662 27.0508 12.8682C27.0508 12.983 27.357 13.0595 28.2121 13.1105C32.6405 13.4292 37.8984 15.5075 41.3186 18.2743C41.7015 18.5803 42.0843 18.7971 42.1864 18.7588C42.3013 18.7078 42.3651 18.7843 42.3651 18.9756C42.3651 19.1668 41.459 20.1614 39.3405 22.2779C35.8182 25.8097 36.0096 25.7077 34.5803 24.726Z" fill="#E64C3C"/>
<path d="M24.7539 54.4468C24.7539 54.3448 24.7029 54.2555 24.6391 54.2555C24.2435 54.2555 22.0867 53.8093 21.2189 53.5543C15.9993 51.9605 11.8772 47.8039 10.3457 42.5635C10.0777 41.62 9.8863 40.6765 9.75868 39.631C9.69487 39.172 9.6183 38.9552 9.49068 38.9552C9.38858 38.9552 9.31201 38.9042 9.31201 38.8277C9.31201 38.7512 9.7842 38.7002 10.4606 38.7002C11.6857 38.7002 12.2728 38.5217 12.4259 38.1009C12.4897 37.9479 12.4132 37.7822 12.1834 37.5909C11.8899 37.3232 11.7113 37.2977 10.5754 37.2977C9.40135 37.2977 9.31201 37.2849 9.31201 37.0427C9.31201 36.9024 9.38858 36.7877 9.49068 36.7877C9.6183 36.7877 9.70763 36.5837 9.75868 36.1884C9.80973 35.8441 9.92458 35.1556 10.0267 34.6584C11.3029 28.245 16.5225 23.1321 23.0056 21.9336C23.5798 21.8316 24.2307 21.7296 24.4477 21.7168C24.7157 21.7041 24.8305 21.6403 24.7922 21.5256C24.7539 21.4236 24.8305 21.3598 24.9837 21.3598C25.2261 21.3598 25.2389 21.4618 25.2899 22.6221C25.3155 23.6421 25.3793 23.9354 25.5707 24.1521C25.877 24.4964 26.0812 24.4964 26.413 24.1394C26.6299 23.8971 26.6682 23.6931 26.6682 22.6094C26.6682 21.6276 26.7065 21.3598 26.8469 21.3598C26.949 21.3598 27.0511 21.4491 27.1021 21.5511C27.1404 21.6658 27.3319 21.7423 27.6126 21.7423C28.2379 21.7423 30.2799 22.1886 31.3646 22.5584C32.6281 22.9919 33.9553 23.6421 35.0018 24.3561C35.7037 24.8152 35.9206 24.9172 36.061 24.7897C36.2014 24.6749 36.2397 24.7132 36.2397 25.0064C36.2397 25.3252 35.7547 25.8607 33.1385 28.4745C30.5479 31.0628 29.9863 31.56 29.68 31.56C29.3865 31.56 29.3482 31.5218 29.4631 31.3815C29.578 31.2413 29.5141 31.1648 29.1313 31.0118C27.5105 30.3743 25.6345 30.2213 24.0648 30.6165C23.0056 30.8843 21.4869 31.7003 21.5379 31.9808C21.5635 32.1338 21.4869 32.1976 21.2955 32.1976C21.104 32.1976 20.4532 31.6493 19.2663 30.4763C18.3092 29.5328 17.4669 28.755 17.4031 28.755C17.2116 28.755 16.8415 29.1885 16.8415 29.4053C16.8415 29.5073 17.5945 30.336 18.5006 31.2413C20.1596 32.8861 20.4532 33.3706 19.9299 33.4981C19.8023 33.5363 19.496 33.9826 19.228 34.5054C18.1433 36.6474 18.1177 39.0445 19.1387 41.2375C19.6364 42.2958 19.8789 42.5763 20.1214 42.385C20.249 42.2703 20.2873 42.3085 20.2873 42.5763C20.2873 42.7675 20.2107 42.9078 20.1214 42.9078C19.8789 42.9078 16.8415 46.0316 16.8415 46.2611C16.8415 46.5161 17.1861 46.8604 17.4414 46.8604C17.5435 46.8604 18.3602 46.1464 19.2536 45.2666C20.5553 43.9916 20.9509 43.6728 21.2317 43.6728C21.4997 43.6728 21.5762 43.7238 21.5252 43.8641C21.4231 44.0936 21.9336 44.4633 23.0566 44.9606C24.9581 45.8276 27.4595 45.7384 29.4503 44.7183C30.2288 44.3231 30.433 44.1701 30.4202 43.9533C30.3947 43.3286 30.9435 43.6601 32.5387 45.2666C33.4193 46.1464 34.2233 46.8604 34.3382 46.8604C34.5551 46.8604 34.9635 46.4779 34.9635 46.2739C34.9635 46.2101 34.2488 45.4451 33.3682 44.5653C32.2452 43.4433 31.773 42.8823 31.773 42.6783C31.773 42.4743 31.8368 42.3978 31.99 42.4233C32.258 42.4743 33.0875 40.957 33.3555 39.9115C33.5852 39.0445 33.6235 36.9789 33.4193 36.2139C33.3555 35.9334 33.1768 35.3979 33.0237 35.0281C32.8067 34.4926 32.7301 34.3906 32.5898 34.5054C32.4494 34.6201 32.4111 34.5819 32.4111 34.2886C32.4111 33.9698 32.8961 33.4343 35.5122 30.8205C38.1029 28.2322 38.6644 27.735 38.9707 27.735C39.2643 27.735 39.3025 27.7732 39.1877 27.9135C39.0728 28.0537 39.1622 28.2832 39.6088 28.9845C41.0382 31.1903 41.9825 33.7403 42.1867 35.9844C42.2505 36.6729 42.3144 36.8769 42.442 36.8259C42.5568 36.7877 42.6206 36.8514 42.6206 37.0299C42.6206 37.2849 42.5568 37.2977 41.3444 37.2977C40.2342 37.2977 40.03 37.3359 39.813 37.5527C39.4812 37.8842 39.494 38.0882 39.8258 38.3942C40.0427 38.5854 40.3363 38.6492 41.3572 38.6747C42.5185 38.7257 42.8886 38.8277 42.4547 38.9935C42.3399 39.0317 42.2505 39.3887 42.1995 39.9497C41.9443 42.691 40.5022 46.0316 38.6134 48.3139C35.8951 51.5907 32.3473 53.5415 28.0465 54.1408C27.268 54.2428 26.9235 54.3448 26.9235 54.4723C26.9235 54.5615 26.8724 54.638 26.7959 54.638C26.7193 54.638 26.6682 54.1153 26.6682 53.312C26.6682 52.037 26.6555 51.9732 26.3364 51.7182C25.6473 51.1827 25.2644 51.8202 25.2644 53.4905C25.2644 54.5488 25.2517 54.638 25.0092 54.638C24.8688 54.638 24.7539 54.5488 24.7539 54.4468Z" fill="#ECF0F1"/>
<path d="M25.0601 39.9243C24.422 39.6438 23.9498 38.9171 23.886 38.1265C23.8349 37.5528 23.886 37.336 24.154 36.877C24.3454 36.5583 29.1694 31.6621 35.6014 25.287C45.9258 15.023 46.7043 14.2198 46.7043 13.8118C46.7043 13.4293 47.0106 13.085 50.2521 9.84643C52.1919 7.90839 53.8893 6.31461 54.0169 6.31461C54.1317 6.31461 54.2338 6.41661 54.2338 6.53136C54.2338 6.65887 54.8719 6.1106 55.8674 5.14158C56.7607 4.24907 57.654 3.45855 57.8455 3.3948C59.5811 2.73178 61.2657 4.41482 60.602 6.14886C60.5382 6.34011 59.747 7.23263 58.8537 8.12515C57.8837 9.11967 57.335 9.75718 57.4626 9.75718C57.5902 9.75718 57.6796 9.85919 57.6796 9.98669C57.6796 10.1014 56.0843 11.7972 54.1317 13.748C50.9157 16.9611 50.5584 17.2798 50.1628 17.2798C49.7672 17.2798 48.9504 18.0704 38.7409 28.3343C32.7045 34.4035 27.4976 39.5418 27.1913 39.7458C26.5405 40.1538 25.7365 40.2176 25.0601 39.9243Z" fill="#9FC9D3"/>
<path d="M53.5959 13.5184L57.3607 9.75711L60.6022 9.78261C63.5247 9.82086 63.8565 9.84636 63.9841 10.0376C64.0989 10.2416 63.6523 10.7389 60.7553 13.6332C57.8073 16.5785 57.3096 17.0248 56.8374 17.1395C56.5184 17.2288 54.9486 17.2798 53.0599 17.2798H49.8311L53.5959 13.5184Z" fill="#3B97D3"/>
<path d="M46.7042 10.9302C46.7042 9.04317 46.7553 7.47489 46.8446 7.15613C46.9595 6.68437 47.4061 6.18711 50.3541 3.2418C53.2511 0.347484 53.7488 -0.0987752 53.953 0.0159773C54.1444 0.14348 54.1699 0.474987 54.2082 3.3948L54.2338 6.63337L50.469 10.3947L46.7042 14.156V10.9302Z" fill="#3B97D3"/>
<path d="M25.7747 63.9712C25.4556 63.8692 25.0089 63.3974 25.0089 63.1551C25.0089 63.0276 24.9451 62.9256 24.8686 62.9256C24.7537 62.9256 24.7282 61.5104 24.7792 57.4685C24.8303 52.7892 24.8686 51.9604 25.0472 51.6289C25.3663 51.0041 26.1192 50.8639 26.6935 51.3101L26.9998 51.5651L26.9615 57.5195C26.9232 62.6579 26.8849 63.5121 26.719 63.7034C26.5021 63.9329 26.0682 64.0604 25.7747 63.9712Z" fill="#C03A2B"/>
<path d="M5.17704 38.9938C0.633799 38.9556 0.582751 38.9428 0.289227 38.6751C-0.144678 38.2671 -0.0808687 37.4893 0.416846 37.1195C0.77418 36.8518 0.889037 36.8518 6.45323 36.8645C11.9409 36.8773 12.1451 36.8773 12.4769 37.1323C13.0639 37.5658 13.0129 38.5603 12.3748 38.8918C12.1068 39.0321 11.6856 39.0703 10.8816 39.0576C10.269 39.0321 7.69114 39.0066 5.17704 38.9938Z" fill="#C03A2B"/>
<path d="M39.6854 38.93C39.0345 38.573 38.8942 37.706 39.4174 37.1832C39.6982 36.9027 41.9187 36.7879 47.2532 36.7879C50.9797 36.7879 51.4774 36.8517 51.8858 37.3999C52.1538 37.7442 52.1028 38.2925 51.7454 38.6367L51.4391 38.9555H47.5085C45.3517 38.9555 42.7738 38.9937 41.7911 39.032C40.4256 39.083 39.9279 39.0575 39.6854 38.93Z" fill="#C03A2B"/>
<path d="M25.5196 24.7642C25.0219 24.5092 24.8815 24.0884 24.8815 22.7879C24.8815 22.1376 24.8432 21.6276 24.7922 21.6531C24.7283 21.6914 24.7028 19.7788 24.7283 17.3945C24.7411 14.7042 24.8049 13.0722 24.8815 13.0722C24.9581 13.0722 25.0091 12.9575 25.0091 12.8172C25.0091 12.4219 25.5706 11.9247 26.0045 11.9247C26.3746 11.9247 26.9234 12.3199 26.9234 12.6004C26.9362 12.6897 26.9489 14.7297 26.9617 17.1523C26.9872 19.5748 27.0127 22.1504 27.0255 22.8644C27.0383 24.2669 26.9489 24.5602 26.4512 24.7897C26.0684 24.9682 25.9152 24.9682 25.5196 24.7642Z" fill="#C03A2B"/>
<path d="M16.9051 47.2174C16.3181 46.8731 16.1649 46.2739 16.535 45.7128C16.9434 45.1136 19.5851 42.5253 19.8021 42.5253C19.9169 42.5253 20.0573 42.4743 20.0956 42.3978C20.287 42.0918 21.1931 42.334 21.5249 42.7675C21.9333 43.2903 21.7419 43.5963 20.0318 45.2793C17.8495 47.4214 17.5687 47.5999 16.9051 47.2174Z" fill="#D1D4D1"/>
<path d="M32.1299 45.6111C30.4325 43.9153 30.3687 43.8388 30.3687 43.3288C30.3687 42.908 30.4325 42.7423 30.7005 42.5383C31.4152 41.9773 31.6577 42.1048 33.6102 44.0428C35.2693 45.6876 35.3969 45.8533 35.3969 46.2996C35.3969 46.8861 34.8992 47.3706 34.2866 47.3706C33.9421 47.3706 33.6485 47.1284 32.1299 45.6111Z" fill="#D1D4D1"/>
<path d="M20.0318 33.4981C19.9297 33.4599 19.0492 32.6184 18.092 31.6239C16.5989 30.0938 16.3309 29.7496 16.3309 29.4181C16.3309 28.8315 16.8286 28.3215 17.4029 28.3215C17.824 28.3215 18.0154 28.4745 19.6234 30.0428C20.5934 30.9736 21.4612 31.8789 21.5377 32.0446C21.7802 32.5036 21.7164 32.9499 21.3718 33.2814C21.0783 33.5874 20.5295 33.6767 20.0318 33.4981Z" fill="#D1D4D1"/>
</svg>
