<svg width="0" height="0" style="display: none" xmlns="http://www.w3.org/2000/svg">
	<symbol id="icon-github" viewBox="0 0 20 20">
		<g transform="translate(-140.000000, -7559.000000)">
			<g transform="translate(56.000000, 160.000000)">
				<path
					d="M94,7399 C99.523,7399 104,7403.59 104,7409.253 C104,7413.782 101.138,7417.624 97.167,7418.981 C96.66,7419.082 96.48,7418.762 96.48,7418.489 C96.48,7418.151 96.492,7417.047 96.492,7415.675 C96.492,7414.719 96.172,7414.095 95.813,7413.777 C98.04,7413.523 100.38,7412.656 100.38,7408.718 C100.38,7407.598 99.992,7406.684 99.35,7405.966 C99.454,7405.707 99.797,7404.664 99.252,7403.252 C99.252,7403.252 98.414,7402.977 96.505,7404.303 C95.706,7404.076 94.85,7403.962 94,7403.958 C93.15,7403.962 92.295,7404.076 91.497,7404.303 C89.586,7402.977 88.746,7403.252 88.746,7403.252 C88.203,7404.664 88.546,7405.707 88.649,7405.966 C88.01,7406.684 87.619,7407.598 87.619,7408.718 C87.619,7412.646 89.954,7413.526 92.175,7413.785 C91.889,7414.041 91.63,7414.493 91.54,7415.156 C90.97,7415.418 89.522,7415.871 88.63,7414.304 C88.63,7414.304 88.101,7413.319 87.097,7413.247 C87.097,7413.247 86.122,7413.234 87.029,7413.87 C87.029,7413.87 87.684,7414.185 88.139,7415.37 C88.139,7415.37 88.726,7417.2 91.508,7416.58 C91.513,7417.437 91.522,7418.245 91.522,7418.489 C91.522,7418.76 91.338,7419.077 90.839,7418.982 C86.865,7417.627 84,7413.783 84,7409.253 C84,7403.59 88.478,7399 94,7399"
				></path>
			</g>
		</g>
	</symbol>

	<symbol id="icon-google" xml:space="preserve" fill="none" viewBox="0 0 64 64">
  <path fill="#FF7976" d="M32.709.835c-9.453 0-17.881 4.146-23.591 10.719a31.082 31.082 0 0 0-4.417 6.641l10.501 8.021a18.416 18.416 0 0 1 6.64-9.104 18.38 18.38 0 0 1 10.866-3.527c4.398 0 8.37 1.559 11.491 4.109l9.079-9.066C47.747 3.81 40.654.835 32.709.835z"/>
  <path fill="#E3443A" d="m4.702 18.194 10.501 8.021a18.416 18.416 0 0 1 6.64-9.104 18.38 18.38 0 0 1 10.866-3.527c4.398 0 8.37 1.559 11.491 4.109l9.079-9.066C47.746 3.811 40.654.835 32.709.835"/>
  <path fill="#F4D72C" d="M14.268 32c0-.287.021-.57.034-.854.082-1.716.387-3.37.901-4.931L4.702 18.194c-1.931 3.917-3.051 8.303-3.177 12.952-.008.285-.025.568-.025.854 0 .287.017.571.024.856.126 4.643 1.246 9.027 3.172 12.94l10.498-8.036a18.523 18.523 0 0 1-.892-4.905c-.013-.284-.034-.567-.034-.855z"/>
  <path fill="#F7B92B" d="m4.697 45.796 10.498-8.036a18.523 18.523 0 0 1-.892-4.905c-.013-.285-.034-.568-.034-.856 0-.287.021-.57.034-.854.082-1.716.387-3.37.901-4.931l-10.502-8.02"/>
  <path fill="#59C96E" d="M43.074 47.691c-2.813 1.772-6.356 2.725-10.365 2.725a18.436 18.436 0 0 1-10.867-3.544 18.367 18.367 0 0 1-6.64-9.086l-10.501 8.02a31.046 31.046 0 0 0 4.409 6.631c5.71 6.58 14.144 10.729 23.599 10.729 2.86 0 5.671-.382 8.355-1.126 4.462-1.238 8.574-3.479 11.979-6.641l-9.969-7.708z"/>
  <path fill="#40A557" d="M4.702 45.806a31.046 31.046 0 0 0 4.409 6.631c5.71 6.58 14.144 10.729 23.599 10.729 2.86 0 5.671-.382 8.355-1.126 4.462-1.238 8.574-3.479 11.979-6.641l-9.97-7.707c-2.813 1.772-6.356 2.725-10.365 2.725a18.436 18.436 0 0 1-10.867-3.544"/>
  <path fill="#0FAEF4" d="M61.791 26H33v12h16.449c-.837 4-3.115 7.636-6.375 9.691l9.97 7.707c2.734-2.538 5.005-5.723 6.639-9.407 1.792-4.036 2.817-8.87 2.817-14.182 0-1.84-.283-3.809-.709-5.809z"/>
  <path fill="#4087ED" d="M53.044 55.398c2.734-2.538 5.025-5.759 6.659-9.443 1.792-4.036 2.807-8.852 2.807-14.163 0-1.841-.293-3.792-.719-5.792H60m-27 5v7h16"/>
</symbol>
</svg>
